<svg width="18" height="18" viewBox="0 0 18 18" fill="none" xmlns="http://www.w3.org/2000/svg">
<path d="M13.1249 2.30339V0.899649H11.6251V1.99532C11.0243 1.90406 10.3959 1.84547 9.74992 1.81874V0H8.24985V1.81874C7.60343 1.84574 6.97545 1.90406 6.37492 1.99532V0.899649H4.87485V2.30339C1.98112 3.0513 0 4.55873 0 6.29997V13.5001C0 15.9855 4.02952 18 9 18C13.9703 18 18 15.9855 18 13.4999V6.29997C18 4.55873 16.018 3.0513 13.1249 2.30339ZM16.4999 13.4999C16.4999 14.1932 13.9212 16.1999 9 16.1999C4.0788 16.1999 1.50007 14.1932 1.50007 13.4999V12.8127C3.5541 13.8031 6.15915 14.4001 9 14.4001C11.8404 14.4001 14.4454 13.805 16.4999 12.8143V13.4999ZM16.4999 10.8447C14.6272 11.8801 12.0103 12.5999 9 12.5999C5.99197 12.5999 3.37275 11.8828 1.50007 10.8492V8.78535C3.1122 9.99928 5.868 10.7998 9 10.7998C12.1318 10.7998 14.888 9.99928 16.4999 8.78535V10.8447ZM9 9C4.0788 9 1.50007 6.99415 1.50007 6.29997C1.50007 5.83719 2.65252 4.79363 4.87507 4.14805V6.29997H6.37515V3.8092C6.95092 3.71416 7.57597 3.64801 8.25007 3.61885V7.19989H9.75015V3.61885C10.424 3.64774 11.0495 3.71416 11.6253 3.8092V6.29997H13.1251V4.14805C15.3475 4.79363 16.5001 5.83719 16.5001 6.29997C16.4999 6.99415 13.9212 9 9 9Z" fill="#0D00A7"/>
</svg>
