<svg width="363" height="222" viewBox="0 0 363 222" fill="none" xmlns="http://www.w3.org/2000/svg">
<line x1="26.7285" y1="45.315" x2="89.7285" y2="112.315" stroke="#0D00A7" stroke-width="2" stroke-dasharray="5 5"/>
<line x1="264.789" y1="43.6139" x2="229.789" y2="88.6139" stroke="#0D00A7" stroke-width="2" stroke-dasharray="5 5"/>
<line x1="316.018" y1="52.697" x2="256.717" y2="113.697" stroke="#0D00A7" stroke-width="2" stroke-dasharray="5 5"/>
<line x1="213.972" y1="43.2346" x2="206.972" y2="72.2346" stroke="#0D00A7" stroke-width="2" stroke-dasharray="5 5"/>
<line x1="155.995" y1="36.9005" x2="158.995" y2="66.9005" stroke="#0D00A7" stroke-width="2" stroke-dasharray="5 5"/>
<line x1="84.8944" y1="45.5528" x2="105.894" y2="87.5528" stroke="#0D00A7" stroke-width="2" stroke-dasharray="5 5"/>
<path d="M357 37C357 39.762 354.762 42 352 42H326C323.239 42 321 39.762 321 37V11C321 8.238 323.239 6 326 6H352C354.762 6 357 8.238 357 11V37Z" fill="#0D00A7"/>
<path opacity="0.05" d="M345 37V26.901C345 25.212 344.181 24.203 342.808 24.203C341.993 24.203 341.394 24.662 341.029 25.567C341.012 25.631 340.988 25.892 340.998 26.681L341 37H334V18H341V19.061C342.022 18.356 343.275 18 344.738 18C349.285 18 351.999 21.093 351.999 26.274L352 37H345ZM326 37V18H329.457C327.454 18 326 16.528 326 14.499C326 12.472 327.478 11 329.514 11C331.526 11 332.959 12.431 333 14.479C333 16.523 331.521 18 329.485 18H333V37H326Z" fill="black"/>
<path opacity="0.07" d="M345.5 36.5V26.901C345.5 24.928 344.469 23.703 342.808 23.703C341.513 23.703 340.873 24.615 340.565 25.38C340.483 25.579 340.494 26.369 340.498 26.706L340.5 36.5H334.5V18.5H340.5V20.138C341.295 19.315 342.575 18.5 344.738 18.5C348.971 18.5 351.499 21.406 351.499 26.274L351.5 36.5H345.5ZM326.5 36.5V18.5H332.5V36.5H326.5ZM329.457 17.5C327.744 17.5 326.5 16.238 326.5 14.499C326.5 12.761 327.768 11.5 329.514 11.5C331.238 11.5 332.465 12.729 332.5 14.489C332.5 16.238 331.232 17.5 329.485 17.5H329.457Z" fill="black"/>
<path d="M327 19H332V36H327V19ZM329.485 17H329.457C327.965 17 327 15.888 327 14.499C327 13.08 327.995 12 329.514 12C331.035 12 331.972 13.08 332 14.499C332 15.887 331.035 17 329.485 17ZM351 36H346V26.901C346 24.703 344.775 23.203 342.808 23.203C341.307 23.203 340.495 24.215 340.101 25.193C339.957 25.543 340 26.511 340 27V36H335V19H340V21.616C340.721 20.5 341.85 19 344.738 19C348.316 19 350.999 21.25 350.999 26.274L351 36Z" fill="white"/>
<path d="M272.004 12C265.375 12 260 17.373 260 24C260 30.627 265.375 36 272.004 36C282.014 36 284.269 26.707 283.33 22H282H279.732H272V26H279.738C278.849 29.4483 275.726 32 272 32C267.582 32 264 28.418 264 24C264 19.582 267.582 16 272 16C274.009 16 275.839 16.7457 277.244 17.9688L280.086 15.1289C277.952 13.1849 275.117 12 272.004 12Z" fill="#0D00A7"/>
<path d="M215 9C207.268 9 201 12.6401 201 17.1299C201 21.6196 215 38 215 38C215 38 229 21.6199 229 17.1299C229 12.6398 222.732 9 215 9ZM215 20.7383C211.569 20.7383 208.787 19.1224 208.787 17.1301C208.787 15.1373 211.569 13.522 215 13.522C218.432 13.522 221.213 15.1373 221.213 17.1301C221.214 19.1224 218.432 20.7383 215 20.7383Z" fill="#0D00A7"/>
<path d="M26.001 19.501C25.044 19.926 24.016 20.212 22.937 20.341C24.039 19.681 24.884 18.636 25.282 17.39C24.252 18.001 23.11 18.445 21.894 18.685C20.921 17.648 19.535 17 18.001 17C15.055 17 12.667 19.389 12.667 22.334C12.667 22.752 12.715 23.16 12.805 23.549C8.372 23.327 4.442 21.203 1.81 17.975C1.352 18.763 1.089 19.679 1.089 20.658C1.089 22.508 2.03 24.141 3.461 25.097C2.587 25.069 1.764 24.829 1.045 24.43C1.045 24.453 1.045 24.474 1.045 24.497C1.045 27.082 2.883 29.238 5.324 29.727C4.877 29.849 4.405 29.914 3.918 29.914C3.575 29.914 3.24 29.88 2.915 29.819C3.594 31.938 5.564 33.481 7.898 33.524C6.073 34.955 3.773 35.808 1.273 35.808C0.843 35.808 0.418 35.783 0 35.733C2.361 37.246 5.164 38.129 8.177 38.129C17.989 38.129 23.353 30.001 23.353 22.952C23.353 22.721 23.348 22.491 23.338 22.262C24.381 21.509 25.286 20.57 26.001 19.501Z" fill="#0D00A7"/>
<path d="M100.623 9.59461C100.219 9.43004 99.7857 9.33594 99.3309 9.33594H67.6683C67.1523 9.33594 66.6706 9.45831 66.2304 9.66422L83.1552 24.7104L100.623 9.59461Z" fill="#0D00A7"/>
<path d="M64.8767 10.8028C64.4648 11.3845 64.2145 12.0956 64.2145 12.8682V31.13C64.2145 31.6588 64.3366 32.1579 64.5395 32.6075L77.0138 21.5916L64.8766 10.8027L64.8767 10.8028Z" fill="#0D00A7"/>
<path d="M102.472 32.5829C102.669 32.1393 102.785 31.6492 102.785 31.13V12.8683C102.785 12.0429 102.496 11.2913 102.03 10.6912L89.6102 21.4377L102.472 32.583L102.472 32.5829Z" fill="#0D00A7"/>
<path d="M83.7038 26.5496L83.1414 27.0398L82.5806 26.5426L78.3296 22.7629L65.6359 33.975C66.207 34.4027 66.9061 34.6631 67.6681 34.6631H99.3307C100.103 34.6631 100.811 34.3948 101.385 33.9556L88.2737 22.5948L83.7036 26.5496H83.7038Z" fill="#0D00A7"/>
<rect x="62.5" y="0.5" width="42" height="43" stroke="white"/>
<path d="M167.39 30.9471L165.6 32.5379C165.28 32.8206 164.344 32.9993 164.316 32.9993C158.65 33.0418 153.196 31.0644 149.187 27.5005C145.167 23.9278 142.939 19.0603 143.001 14.0096C143.001 14.0067 143.206 13.1981 143.525 12.9169L145.315 11.3246C145.972 10.7416 147.229 10.478 148.11 10.7387L148.487 10.8515C149.368 11.1122 150.289 11.9764 150.533 12.7718L151.434 15.7117C151.679 16.5085 151.35 17.6422 150.694 18.2252L149.498 19.2887C150.671 23.1543 154.081 26.185 158.428 27.2294L159.624 26.1659C160.28 25.5829 161.559 25.2914 162.456 25.5082L165.763 26.311C166.656 26.5263 167.629 27.3436 167.924 28.1273L168.049 28.4627C168.342 29.2465 168.046 30.3642 167.39 30.9471ZM158.187 20.9997H159.875C159.875 19.343 158.364 17.9998 156.5 17.9998V19.4997C157.43 19.4997 158.187 20.1735 158.187 20.9997ZM164.937 20.9997C164.937 16.8572 161.16 13.4999 156.5 13.4999V14.9999C160.223 14.9999 163.25 17.6922 163.25 20.9997H164.937ZM156.5 9V10.5C163.013 10.5 168.312 15.2107 168.312 20.9997H170C170 14.3729 163.955 9 156.5 9Z" fill="#0D00A7"/>
<path d="M245.004 146.998C245.004 188.419 211.425 221.996 170.002 221.996C128.579 221.996 95 188.418 95 146.998C95 105.578 128.579 72 170.002 72C211.425 72 245.004 105.578 245.004 146.998Z" fill="#0D00A7"/>
<path d="M126.947 155.077H217.7C227.157 155.077 234.824 162.744 234.824 172.201C234.824 181.657 227.157 189.324 217.7 189.324H126.947C117.49 189.324 109.824 181.657 109.824 172.201C109.824 162.744 117.49 155.077 126.947 155.077Z" fill="white"/>
<path d="M105.181 164.502C105.181 178.309 116.374 189.502 130.181 189.502C143.988 189.502 155.181 178.309 155.181 164.502C155.181 150.693 143.989 139.5 130.18 139.5C116.372 139.5 105.18 150.693 105.18 164.5L105.181 164.502Z" fill="white"/>
<path d="M162.329 137.718C162.329 156.062 177.2 170.933 195.542 170.933C213.885 170.933 228.755 156.062 228.755 137.718C228.756 119.372 213.886 104.5 195.541 104.5C177.197 104.5 162.328 119.372 162.328 137.715L162.329 137.718Z" fill="white"/>
<path d="M129.468 142.72C129.468 155.935 140.181 166.648 153.396 166.648C166.612 166.648 177.325 155.935 177.325 142.72C177.325 129.503 166.612 118.789 153.395 118.789C140.18 118.789 129.467 129.503 129.467 142.718L129.468 142.72Z" fill="white"/>
</svg>
