<svg width="23" height="21" viewBox="0 0 23 21" fill="none" xmlns="http://www.w3.org/2000/svg">
<g clip-path="url(#clip0_28_687)">
<path d="M22.1589 6.33757L21.1426 7.26621L15.043 1.69768L16.0594 0.769043C17.1824 -0.256348 19.0031 -0.256348 20.1262 0.769043L22.1589 2.62566C23.2806 3.65043 23.2806 5.31218 22.1589 6.33757ZM7.92711 17.474C7.64635 17.7303 7.64635 18.1456 7.92711 18.4019C8.20787 18.6596 8.6627 18.6596 8.94347 18.4019L20.1262 8.19418L19.1085 7.26555L7.92711 17.474ZM2.84393 12.8341C2.56316 13.0904 2.56316 13.5057 2.84393 13.7621C3.12469 14.0184 3.57952 14.0184 3.86028 13.7621L15.043 3.55363L14.0266 2.62566L2.84393 12.8341ZM16.058 4.481L4.87664 14.69C4.31512 15.2015 4.31651 16.0333 4.87664 16.546C5.43817 17.0587 6.34783 17.0613 6.91075 16.5447L18.0921 6.33761L16.058 4.481ZM6.90796 19.3274C6.56404 19.0134 6.39837 18.6147 6.3366 18.2046C6.19061 18.2251 6.04322 18.2443 5.893 18.2443C5.1251 18.2443 4.40357 17.97 3.86028 17.474C3.317 16.9767 3.018 16.3192 3.018 15.6181C3.018 15.4899 3.03907 15.3656 3.0587 15.2412C2.59403 15.1835 2.16448 14.9977 1.82757 14.69C1.79527 14.6605 1.78404 14.6208 1.75457 14.5888L-0.000213623 21L7.00338 19.3992C6.97252 19.3735 6.93743 19.3543 6.90796 19.3274Z" fill="#0D00A7"/>
</g>
<defs>
<clipPath id="clip0_28_687">
<rect width="23" height="21" fill="white"/>
</clipPath>
</defs>
</svg>
